<?xml version="1.0" encoding="UTF-8" standalone="no"?>
<!-- Created with Inkscape (http://www.inkscape.org/) -->

<svg
   xmlns:dc="http://purl.org/dc/elements/1.1/"
   xmlns:cc="http://creativecommons.org/ns#"
   xmlns:rdf="http://www.w3.org/1999/02/22-rdf-syntax-ns#"
   xmlns:svg="http://www.w3.org/2000/svg"
   xmlns="http://www.w3.org/2000/svg"
   xmlns:sodipodi="http://sodipodi.sourceforge.net/DTD/sodipodi-0.dtd"
   xmlns:inkscape="http://www.inkscape.org/namespaces/inkscape"
   width="209.40807mm"
   height="162.39597mm"
   viewBox="0 0 209.40804 162.39596"
   version="1.1"
   id="svg8"
   inkscape:version="0.92.2 (5c3e80d, 2017-08-06)"
   sodipodi:docname="g2.svg"
   inkscape:export-filename="/home/santhosh/Documents/papers/typoday-paper/images/g2.png"
   inkscape:export-xdpi="96"
   inkscape:export-ydpi="96">
  <defs
     id="defs2">
    <inkscape:path-effect
       effect="spiro"
       id="path-effect2202"
       is_visible="true" />
    <inkscape:path-effect
       effect="spiro"
       id="path-effect833"
       is_visible="true" />
    <inkscape:path-effect
       effect="simplify"
       id="path-effect829"
       is_visible="true"
       steps="1"
       threshold="0.015271"
       smooth_angles="360"
       helper_size="0"
       simplify_individual_paths="false"
       simplify_just_coalesce="false"
       simplifyindividualpaths="false"
       simplifyJustCoalesce="false" />
    <inkscape:path-effect
       effect="spiro"
       id="path-effect833-2"
       is_visible="true" />
    <inkscape:path-effect
       effect="spiro"
       id="path-effect2202-6"
       is_visible="true" />
    <inkscape:path-effect
       effect="spiro"
       id="path-effect2202-67"
       is_visible="true" />
    <inkscape:path-effect
       effect="spiro"
       id="path-effect2202-67-6"
       is_visible="true" />
    <inkscape:path-effect
       effect="spiro"
       id="path-effect2202-6-1"
       is_visible="true" />
  </defs>
  <sodipodi:namedview
     id="base"
     pagecolor="#ffffff"
     bordercolor="#666666"
     borderopacity="1.0"
     inkscape:pageopacity="0.0"
     inkscape:pageshadow="2"
     inkscape:zoom="0.35355339"
     inkscape:cx="499.58923"
     inkscape:cy="217.67074"
     inkscape:document-units="mm"
     inkscape:current-layer="layer1"
     showgrid="false"
     fit-margin-top="10"
     fit-margin-left="10"
     fit-margin-right="10"
     fit-margin-bottom="10"
     inkscape:window-width="1600"
     inkscape:window-height="841"
     inkscape:window-x="1920"
     inkscape:window-y="0"
     inkscape:window-maximized="1" />
  <metadata
     id="metadata5">
    <rdf:RDF>
      <cc:Work
         rdf:about="">
        <dc:format>image/svg+xml</dc:format>
        <dc:type
           rdf:resource="http://purl.org/dc/dcmitype/StillImage" />
        <dc:title></dc:title>
      </cc:Work>
    </rdf:RDF>
  </metadata>
  <g
     inkscape:label="Layer 1"
     inkscape:groupmode="layer"
     id="layer1"
     transform="translate(-7.5022533,-2.3618935)">
    <path
       style="fill:none;stroke:#ff0000;stroke-width:0.35989264px;stroke-linecap:butt;stroke-linejoin:miter;stroke-opacity:1"
       d="M 47.994859,15.894569 H 34.507285"
       id="path984"
       inkscape:connector-curvature="0"
       sodipodi:nodetypes="cc" />
    <flowRoot
       xml:space="preserve"
       id="flowRoot990"
       style="font-style:normal;font-variant:normal;font-weight:normal;font-stretch:normal;font-size:13.33347702px;line-height:1.25;font-family:Gentium;-inkscape-font-specification:'Gentium, Normal';font-variant-ligatures:normal;font-variant-caps:normal;font-variant-numeric:normal;font-feature-settings:normal;text-align:start;letter-spacing:0px;word-spacing:0px;writing-mode:lr-tb;text-anchor:start;fill:#ff0000;fill-opacity:1;stroke:none"
       transform="matrix(0.44931059,0,0,0.44931059,19.867895,-36.971357)"><flowRegion
         id="flowRegion992"
         style="font-style:normal;font-variant:normal;font-weight:normal;font-stretch:normal;font-size:13.33347702px;font-family:Gentium;-inkscape-font-specification:'Gentium, Normal';font-variant-ligatures:normal;font-variant-caps:normal;font-variant-numeric:normal;font-feature-settings:normal;text-align:start;writing-mode:lr-tb;text-anchor:start;fill:#ff0000"><rect
           id="rect994"
           width="25.102293"
           height="17.324112"
           x="16.61701"
           y="106.34317"
           style="font-style:normal;font-variant:normal;font-weight:normal;font-stretch:normal;font-size:13.33347702px;font-family:Gentium;-inkscape-font-specification:'Gentium, Normal';font-variant-ligatures:normal;font-variant-caps:normal;font-variant-numeric:normal;font-feature-settings:normal;text-align:start;writing-mode:lr-tb;text-anchor:start;fill:#ff0000" /></flowRegion><flowPara
         id="flowPara2808">G2</flowPara></flowRoot>    <path
       style="fill:none;stroke:#000000;stroke-width:1;stroke-linecap:butt;stroke-linejoin:miter;stroke-miterlimit:4;stroke-dasharray:none;stroke-opacity:1"
       d="m 33.770811,68.735505 c -4.354207,-1.938534 -8.16879,-5.073003 -10.914758,-8.968731 -2.745968,-3.895728 -4.41576,-8.541988 -4.777815,-13.294456 -0.358514,-4.705977 0.561941,-9.493027 2.566042,-13.766004 2.004102,-4.272976 5.080648,-8.027263 8.826865,-10.897909 5.435342,-4.164986 12.296084,-6.437287 19.142782,-6.324243 6.846698,0.113043 13.633539,2.613602 18.906708,6.982095 7.776156,6.442062 11.79141,16.20753 16.254701,25.265554 2.231645,4.529012 4.661002,8.999802 7.840046,12.922284 3.179044,3.922483 7.162125,7.297699 11.856118,9.157435 4.71549,1.868255 10.05442,2.12028 14.92494,0.704537 4.87051,-1.415743 9.24243,-4.49048 12.22166,-8.595409"
       id="path2200"
       inkscape:connector-curvature="0"
       inkscape:path-effect="#path-effect2202"
       inkscape:original-d="M 33.770811,68.735505 C 36.744144,64.659434 18.899958,55.514376 18.078238,46.472318 17.258625,37.453442 21.800247,26.621846 29.471145,21.808405 40.215993,15.066079 62.598982,29.213945 67.520635,22.466257 78.768498,7.0452044 91.489958,54.02775 103.4715,69.81153 c 11.98157,15.7838 18.09982,-5.262611 27.1466,-7.890872"
       sodipodi:nodetypes="caassc" />
    <ellipse
       style="opacity:0.753;fill:#d40000;fill-opacity:1;fill-rule:evenodd;stroke:#d40000;stroke-width:3.90966749;stroke-linecap:square;stroke-linejoin:bevel;stroke-miterlimit:4;stroke-dasharray:none;stroke-dashoffset:0;stroke-opacity:1;paint-order:markers fill stroke"
       id="path859"
       cx="50.389683"
       cy="16.404949"
       rx="0.22340956"
       ry="0.25133574" />
    <path
       style="fill:none;stroke:#ff0000;stroke-width:1;stroke-linecap:butt;stroke-linejoin:miter;stroke-miterlimit:4;stroke-dasharray:1, 1;stroke-dashoffset:0;stroke-opacity:1"
       d="m 33.486194,105.66155 c 3.545794,-3.64044 8.121779,-6.266404 13.053883,-7.49107 4.932104,-1.224667 10.204936,-1.044215 15.041775,0.514774 4.836839,1.558986 9.22259,4.491646 12.511206,8.365986 3.288616,3.87433 5.469834,8.67825 6.222346,13.7041 0.784159,5.23721 0.01107,10.69775 -2.196068,15.51146 -2.207141,4.81372 -5.840222,8.96292 -10.320306,11.78642 -4.480084,2.8235 -9.790706,4.31092 -15.085606,4.22525 -5.2949,-0.0857 -10.554619,-1.74414 -14.94101,-4.7111 -6.62778,-4.48305 -11.118473,-11.99157 -11.932644,-19.95161 -0.814171,-7.96005 2.06346,-16.22222 7.646424,-21.95421 z"
       id="path2200-2"
       inkscape:connector-curvature="0"
       inkscape:path-effect="#path-effect2202-6"
       inkscape:original-d="m 33.486194,105.66155 c 5.3827,-7.379417 41.44747,22.47228 46.82921,15.09379 11.24787,-15.42105 -54.52453,11.02825 -42.54299,26.81203 5.86828,-8.04469 -10.15337,-33.86224 -4.28622,-41.90582 z"
       sodipodi:nodetypes="sscs" />
    <path
       style="fill:none;stroke:#000000;stroke-width:1;stroke-linecap:butt;stroke-linejoin:miter;stroke-miterlimit:4;stroke-dasharray:none;stroke-opacity:1"
       d="m 33.632014,150.02061 c -6.852633,-4.81168 -11.282151,-12.90988 -11.63722,-21.27557 -0.234847,-5.53316 1.247896,-11.10817 4.08256,-15.86587 2.834665,-4.7577 6.998365,-8.69327 11.842,-11.37846 6.466145,-3.584674 14.152731,-4.918086 21.44843,-3.720714"
       id="path2200-6"
       inkscape:connector-curvature="0"
       inkscape:path-effect="#path-effect2202-67"
       inkscape:original-d="m 33.632014,150.02061 c 1.92351,-2.6369 -10.78626,-12.93047 -11.63722,-21.27557 -1.01113,-9.91576 14.72505,-21.60394 15.92456,-27.24433 2.13017,-10.016598 17.39069,1.84236 21.44843,-3.720714"
       sodipodi:nodetypes="cssc" />
    <ellipse
       style="opacity:0.753;fill:#d40000;fill-opacity:1;fill-rule:evenodd;stroke:#d40000;stroke-width:3.90966749;stroke-linecap:square;stroke-linejoin:bevel;stroke-miterlimit:4;stroke-dasharray:none;stroke-dashoffset:0;stroke-opacity:1;paint-order:markers fill stroke"
       id="path859-3"
       cx="58.606628"
       cy="97.276825"
       rx="0.22340956"
       ry="0.25133574" />
    <ellipse
       style="opacity:0.753;fill:#d40000;fill-opacity:1;fill-rule:evenodd;stroke:#d40000;stroke-width:3.90966749;stroke-linecap:square;stroke-linejoin:bevel;stroke-miterlimit:4;stroke-dasharray:none;stroke-dashoffset:0;stroke-opacity:1;paint-order:markers fill stroke"
       id="path859-8"
       cx="128.07085"
       cy="98.75473"
       rx="0.22340956"
       ry="0.25133574" />
    <path
       style="fill:none;stroke:#000000;stroke-width:1;stroke-linecap:butt;stroke-linejoin:miter;stroke-miterlimit:4;stroke-dasharray:none;stroke-opacity:1"
       d="m 128.71709,98.702331 c 8.35455,2.917939 15.82929,8.306059 21.23866,15.309749 5.00341,6.47808 8.17889,14.1475 12.27628,21.23348 2.04869,3.54299 4.34783,6.96612 7.16105,9.93861 2.81322,2.97249 6.16335,5.49121 9.96543,7.00584 4.71399,1.87791 10.05648,2.13513 14.92908,0.71878 4.87259,-1.41634 9.24474,-4.49738 12.21752,-8.60965"
       id="path2200-6-7"
       inkscape:connector-curvature="0"
       inkscape:path-effect="#path-effect2202-67-6"
       inkscape:original-d="m 128.71709,98.702331 c 2.98331,-4.09007 14.97062,9.237279 21.23866,15.309749 11.53657,11.17659 17.42122,22.39415 29.40276,38.17793 11.98157,15.7838 18.09982,-5.26261 27.1466,-7.89087"
       sodipodi:nodetypes="casc" />
    <path
       style="fill:none;stroke:#ff0000;stroke-width:1;stroke-linecap:butt;stroke-linejoin:miter;stroke-miterlimit:4;stroke-dasharray:1.00000001, 1.00000001;stroke-dashoffset:0;stroke-opacity:1"
       d="m 104.95942,107.63743 c 3.54579,-3.64044 8.12178,-6.2664 13.05388,-7.49107 4.93211,-1.224667 10.20494,-1.044215 15.04178,0.51477 4.83684,1.55899 9.22259,4.49165 12.5112,8.36599 3.28862,3.87433 5.46984,8.67825 6.22235,13.7041 0.78416,5.23721 0.0111,10.69775 -2.19607,15.51146 -2.20714,4.81372 -5.84022,8.96292 -10.3203,11.78642 -4.48009,2.8235 -9.79071,4.31092 -15.08561,4.22525 -5.2949,-0.0857 -10.55462,-1.74414 -14.94101,-4.7111 -6.62778,-4.48305 -11.118473,-11.99157 -11.932644,-19.95161 -0.814171,-7.96005 2.06346,-16.22222 7.646424,-21.95421 z"
       id="path2200-2-0"
       inkscape:connector-curvature="0"
       inkscape:path-effect="#path-effect2202-6-1"
       inkscape:original-d="m 104.95942,107.63743 c 5.3827,-7.37942 41.44747,22.47228 46.82921,15.09379 11.24787,-15.42105 -54.524526,11.02825 -42.54299,26.81203 5.86828,-8.04468 -10.153366,-33.86224 -4.28622,-41.90582 z"
       sodipodi:nodetypes="sscs" />
  </g>
</svg>
